<svg id="Livello_1" data-name="Livello 1" xmlns="http://www.w3.org/2000/svg" viewBox="0 0 1920 1080"><defs><style>.cls-1{fill:#f5a113;}.cls-2{fill:#154980;}.cls-3{fill:#dc541d;}.cls-4{fill:#4d7016;}.cls-5{fill:#b20209;}.cls-6{fill:#060606;}.cls-7{fill:#1f1f1f;}</style></defs><path class="cls-1" d="M612.78,572.94H536.55a19.22,19.22,0,0,1-19.22-19.23V402.89a19.23,19.23,0,0,0-19.23-19.23h-10a19.23,19.23,0,0,0-19.23,19.23v193a19.23,19.23,0,0,0,19.23,19.23H612.78A19.23,19.23,0,0,0,632,595.89v-3.72A19.23,19.23,0,0,0,612.78,572.94Z"/><path class="cls-2" d="M1026.29,453.72a48,48,0,0,0-18-11,64.7,64.7,0,0,0-22.65-3.66c-27.08.47-31.43,9.52-41.5,13.29-12.82,4.81-15-9.61-25.64-8.75H906.26A19.23,19.23,0,0,0,887,462.85v133a19.23,19.23,0,0,0,19.23,19.23h6.85a19.23,19.23,0,0,0,19.23-19.23V516.82q0-39.39,35.21-39.39,16,0,22.66,7t6.62,26.84v84.65a19.23,19.23,0,0,0,19.23,19.23h7.21a19.23,19.23,0,0,0,19.23-19.23V496.25a64.52,64.52,0,0,0-4.36-24.57A52.88,52.88,0,0,0,1026.29,453.72Z"/><path class="cls-3" d="M1431.9,439.07H1425a19.23,19.23,0,0,0-19.23,19.23v79.08q0,39.38-35.21,39.39-16,0-22.65-7T1341.32,543V458.3a19.23,19.23,0,0,0-19.23-19.23h-7.2a19.23,19.23,0,0,0-19.23,19.23v99.64q0,13.93,4.36,24.58a52.54,52.54,0,0,0,11.85,18,48,48,0,0,0,18,11,64.76,64.76,0,0,0,22.66,3.66c27.07-.47,31.43-9.51,41.49-13.29,12.82-4.8,15,9.62,25.64,8.76h12.29a19.23,19.23,0,0,0,19.23-19.23v-133A19.23,19.23,0,0,0,1431.9,439.07Z"/><path class="cls-4" d="M1229.91,443.62H1218.2c-14.42,0-9.61,9.66-23.73,9.66-9.92,0-14.73-14.2-38.75-14.2a67.56,67.56,0,0,0-29.28,6.45,71.92,71.92,0,0,0-23.7,18.13,87.75,87.75,0,0,0-16,28.23,107.53,107.53,0,0,0-5.93,36.43,134.7,134.7,0,0,0,4,32.77,80.41,80.41,0,0,0,12.9,28.23A65.64,65.64,0,0,0,1121,609q14.46,7.5,35.73,7.49,16.73,0,29.45-6.44l.26-.14a11.82,11.82,0,0,1,17.34,10.42h0q0,17.07-12.54,27t-30.68,9.94q-17.08,0-27.36-8.54a27,27,0,0,1-7.88-10.73,21.33,21.33,0,0,0-19.67-13.5h-3.24a18.59,18.59,0,0,0-17.55,24.85q1,2.63,2.15,5.13A65.79,65.79,0,0,0,1104.3,677a78.52,78.52,0,0,0,26.32,14.3,110.38,110.38,0,0,0,66.58-.18A79.5,79.5,0,0,0,1224.39,676a69.9,69.9,0,0,0,18.13-24.75q6.62-14.82,6.62-34.34v-154A19.23,19.23,0,0,0,1229.91,443.62ZM1166.53,573c-30,0-38.7-26.85-38.7-42.19,0-34.86,12.9-44.74,38.7-44.74s38.69,10.82,38.69,47.53C1205.22,548.19,1199,573,1166.53,573Z"/><path class="cls-5" d="M838.42,514.87c-1.61-9.62-10.27-11.63-17.4-12.5,0,0-17.89-.84-41.24-.84a2,2,0,0,1-2-2c-.29-16.27-1.56-30.76-4.2-41.16a61.78,61.78,0,0,1-20.31,10.9,48.44,48.44,0,0,1-14.8,2.57,35.29,35.29,0,0,1-4-.24c-.2,7.42-.44,18.07-.49,29.41a2,2,0,0,1-1.85,2c-21.62,1.5-41.64,4.36-52.77,9.58a12.58,12.58,0,0,0-6.55,14.81c2.49,8.89,5.59,18.53,12.9,20.51a10,10,0,0,0,4.65,0c4.75-1,20.46-3.64,42.71-1.73a2.19,2.19,0,0,1,2,2c1.3,23.16,4,45.38,9.34,58a13.54,13.54,0,0,0,16,7.87c10-2.6,20.37-8.77,20.37-15.9,0,0-1.75-22.8-1.91-50.12a3.34,3.34,0,0,1,2.74-3.31c14.83-2.68,36.7-2.95,47.24-7.47C837.39,533.62,840.8,529.18,838.42,514.87Z"/><path d="M725.07,441.35c13.74.38,39.23-2.4,56.9-25A2.84,2.84,0,0,1,787,418.5c-2.23,13.24-9.94,34.67-36.21,43.19-19.22,6.23-28.06-2.09-32.09-10.08A7,7,0,0,1,725.07,441.35Z"/><path class="cls-6" d="M700.14,476c-4.77.46-10.07,1-15.37,1.48-3.12.27-4.19,1.85-3.63,4.91,1.27,7,4.07,12.75,11.68,14.72a8.1,8.1,0,0,1,2.5,1.08c2.59,1.77,4.7,2.8,6.57-1.13.92-1.95,3.51-2.35,5.71-2.1,2.73.31,3.88-.89,4.21-3.48a18.24,18.24,0,0,1,2.34-6.37c2.65-4.86-.38-9.78-5.73-9.52Z"/><path class="cls-6" d="M678.6,473.21a74.74,74.74,0,0,0,29.91-3.78c3.29-1.1,3.2-4.47.09-7.12-6.84-5.79-18.23-5.27-24.55,1.23a18.42,18.42,0,0,0-5.42,9.73Z"/><path class="cls-7" d="M675.2,478.35c-3.33.35-6.21,1.43-8,4.42-.56.92-.92,1.94,0,2.89s1.72.31,2.5,0a20.67,20.67,0,0,0,6.93-4.18c.62-.64,1.45-1.26,1-2.29S676,478.61,675.2,478.35Z"/><path class="cls-7" d="M677.39,474.43l0,.06c-4-.32-8-1.72-12.41,0C669.49,477.31,673.44,476,677.39,474.43Z"/><path class="cls-6" d="M816.14,472c-4.77.46-10.07,1-15.37,1.48-3.12.27-4.19,1.85-3.63,4.91,1.27,7,4.07,12.75,11.68,14.72a8.1,8.1,0,0,1,2.5,1.08c2.59,1.77,4.7,2.8,6.57-1.13.92-1.95,3.51-2.35,5.71-2.1,2.73.31,3.88-.89,4.21-3.48a18.24,18.24,0,0,1,2.34-6.37c2.65-4.86-.38-9.78-5.73-9.52Z"/><path class="cls-6" d="M794.6,469.21a74.74,74.74,0,0,0,29.91-3.78c3.29-1.1,3.2-4.47.09-7.12-6.84-5.79-18.23-5.27-24.55,1.23a18.42,18.42,0,0,0-5.42,9.73Z"/><path class="cls-7" d="M791.2,474.35c-3.33.35-6.21,1.43-8,4.42-.56.92-.92,1.94,0,2.89s1.72.31,2.5,0a20.67,20.67,0,0,0,6.93-4.18c.62-.64,1.45-1.26,1-2.29S792,474.61,791.2,474.35Z"/><path class="cls-7" d="M793.39,470.43l0,.06c-4-.32-8-1.72-12.41,0C785.49,473.31,789.44,472,793.39,470.43Z"/><path class="cls-6" d="M820.14,567c-4.77.46-10.07,1-15.37,1.48-3.12.27-4.19,1.85-3.63,4.91,1.27,7,4.07,12.75,11.68,14.72a8.1,8.1,0,0,1,2.5,1.08c2.59,1.77,4.7,2.8,6.57-1.13.92-1.95,3.51-2.35,5.71-2.1,2.73.31,3.88-.89,4.21-3.48a18.24,18.24,0,0,1,2.34-6.37c2.65-4.86-.38-9.78-5.73-9.52Z"/><path class="cls-6" d="M798.6,564.21a74.74,74.74,0,0,0,29.91-3.78c3.29-1.1,3.2-4.47.09-7.12-6.84-5.79-18.23-5.27-24.55,1.23a18.42,18.42,0,0,0-5.42,9.73Z"/><path class="cls-7" d="M795.2,569.35c-3.33.35-6.21,1.43-8,4.42-.56.92-.92,1.94,0,2.89s1.72.31,2.5,0a20.67,20.67,0,0,0,6.93-4.18c.62-.64,1.45-1.26,1-2.29S796,569.61,795.2,569.35Z"/><path class="cls-7" d="M797.39,565.43l0,.06c-4-.32-8-1.72-12.41,0C789.49,568.31,793.44,567,797.39,565.43Z"/><path class="cls-6" d="M714.14,573c-4.77.46-10.07,1-15.37,1.48-3.12.27-4.19,1.85-3.63,4.91,1.27,7,4.07,12.75,11.68,14.72a8.1,8.1,0,0,1,2.5,1.08c2.59,1.77,4.7,2.8,6.57-1.13.92-1.95,3.51-2.35,5.71-2.1,2.73.31,3.88-.89,4.21-3.48a18.24,18.24,0,0,1,2.34-6.37c2.65-4.86-.38-9.78-5.73-9.52Z"/><path class="cls-6" d="M692.6,570.21a74.74,74.74,0,0,0,29.91-3.78c3.29-1.1,3.2-4.47.09-7.12-6.84-5.79-18.23-5.27-24.55,1.23a18.42,18.42,0,0,0-5.42,9.73Z"/><path class="cls-7" d="M689.2,575.35c-3.33.35-6.21,1.43-8,4.42-.56.92-.92,1.94,0,2.89s1.72.31,2.5,0a20.67,20.67,0,0,0,6.93-4.18c.62-.64,1.45-1.26,1-2.29S690,575.61,689.2,575.35Z"/><path class="cls-7" d="M691.39,571.43l0,.06c-4-.32-8-1.72-12.41,0C683.49,574.31,687.44,573,691.39,571.43Z"/></svg>